{
 "cells": [
  {
   "cell_type": "code",
   "execution_count": 2,
   "id": "225f4934",
   "metadata": {},
   "outputs": [
    {
     "name": "stderr",
     "output_type": "stream",
     "text": [
      "[image2 @ 0x55ef07907680] Pattern type 'glob_sequence' is deprecated: use pattern_type 'glob' instead\n",
      "Input #0, image2, from '/home/jack/Desktop/HDD500/MyTube_AI_Flask_App/Project_TheOrigin/RAW_Story_resources/mkvideo/%*.jpg':\n",
      "  Duration: 00:00:04.56, start: 0.000000, bitrate: N/A\n",
      "    Stream #0:0: Video: mjpeg (Baseline), yuvj444p(pc, bt470bg/unknown/unknown), 512x666 [SAR 1:1 DAR 256:333], 25 fps, 25 tbr, 25 tbn, 25 tbc\n",
      "Stream mapping:\n",
      "  Stream #0:0 -> #0:0 (mjpeg (native) -> h264 (libx264))\n",
      "Press [q] to stop, [?] for help\n",
      "[swscaler @ 0x55ef07a16f80] deprecated pixel format used, make sure you did set range correctly\n",
      "[libx264 @ 0x55ef07915a80] using SAR=1/1\n",
      "[libx264 @ 0x55ef07915a80] using cpu capabilities: MMX2 SSE2Fast LZCNT SSSE3 SSE4.2\n",
      "[libx264 @ 0x55ef07915a80] profile High, level 3.1\n",
      "[libx264 @ 0x55ef07915a80] 264 - core 155 r2917 0a84d98 - H.264/MPEG-4 AVC codec - Copyleft 2003-2018 - http://www.videolan.org/x264.html - options: cabac=1 ref=3 deblock=1:0:0 analyse=0x3:0x113 me=hex subme=7 psy=1 psy_rd=1.00:0.00 mixed_ref=1 me_range=16 chroma_me=1 trellis=1 8x8dct=1 cqm=0 deadzone=21,11 fast_pskip=1 chroma_qp_offset=-2 threads=3 lookahead_threads=1 sliced_threads=0 nr=0 decimate=1 interlaced=0 bluray_compat=0 constrained_intra=0 bframes=3 b_pyramid=2 b_adapt=1 b_bias=0 direct=1 weightb=1 open_gop=0 weightp=2 keyint=250 keyint_min=25 scenecut=40 intra_refresh=0 rc_lookahead=40 rc=crf mbtree=1 crf=23.0 qcomp=0.60 qpmin=0 qpmax=69 qpstep=4 ip_ratio=1.40 aq=1:1.00\n",
      "Output #0, mp4, to 'EXPERIMENT/XXXX1.mp4':\n",
      "  Metadata:\n",
      "    encoder         : Lavf58.29.100\n",
      "    Stream #0:0: Video: h264 (libx264) (avc1 / 0x31637661), yuv420p, 512x768 [SAR 1:1 DAR 2:3], q=-1--1, 30 fps, 15360 tbn, 30 tbc\n",
      "    Metadata:\n",
      "      encoder         : Lavc58.54.100 libx264\n",
      "    Side data:\n",
      "      cpb: bitrate max/min/avg: 0/0/0 buffer size: 0 vbv_delay: -1\n",
      "[swscaler @ 0x55ef07a13f00] deprecated pixel format used, make sure you did set range correctly\n",
      "[swscaler @ 0x55ef07c2c340] deprecated pixel format used, make sure you did set range correctly\n",
      "[swscaler @ 0x55ef07987300] deprecated pixel format used, make sure you did set range correctly\n",
      "    Last message repeated 1 times\n",
      "[swscaler @ 0x55ef07987300] deprecated pixel format used, make sure you did set range correctly speed=0.685x    \n",
      "    Last message repeated 1 times\n",
      "frame=  137 fps= 30 q=-1.0 Lsize=    4588kB time=00:00:04.46 bitrate=8414.0kbits/s dup=23 drop=0 speed=0.981x    \n",
      "video:4586kB audio:0kB subtitle:0kB other streams:0kB global headers:0kB muxing overhead: 0.032195%\n",
      "[libx264 @ 0x55ef07915a80] frame I:25    Avg QP:25.62  size: 61905\n",
      "[libx264 @ 0x55ef07915a80] frame P:111   Avg QP:29.87  size: 28360\n",
      "[libx264 @ 0x55ef07915a80] frame B:1     Avg QP:29.95  size:   145\n",
      "[libx264 @ 0x55ef07915a80] consecutive B-frames: 98.5%  1.5%  0.0%  0.0%\n",
      "[libx264 @ 0x55ef07915a80] mb I  I16..4:  2.0% 70.6% 27.3%\n",
      "[libx264 @ 0x55ef07915a80] mb P  I16..4:  2.7% 51.0% 24.4%  P16..4:  0.6%  0.2%  0.1%  0.0%  0.0%    skip:21.0%\n",
      "[libx264 @ 0x55ef07915a80] mb B  I16..4:  0.0%  0.0%  0.0%  B16..8:  5.9%  0.1%  0.0%  direct: 0.1%  skip:93.9%  L0: 6.5% L1:93.5% BI: 0.0%\n",
      "[libx264 @ 0x55ef07915a80] 8x8 transform intra:66.5% inter:70.3%\n",
      "[libx264 @ 0x55ef07915a80] coded y,uvDC,uvAC intra: 87.1% 92.3% 66.2% inter: 2.9% 3.9% 1.0%\n",
      "[libx264 @ 0x55ef07915a80] i16 v,h,dc,p: 16%  9%  3% 73%\n",
      "[libx264 @ 0x55ef07915a80] i8 v,h,dc,ddl,ddr,vr,hd,vl,hu: 13% 12% 13% 10% 11% 10%  9% 11% 11%\n",
      "[libx264 @ 0x55ef07915a80] i4 v,h,dc,ddl,ddr,vr,hd,vl,hu: 16% 12% 12% 11% 13% 12%  9%  9%  7%\n",
      "[libx264 @ 0x55ef07915a80] i8c dc,h,v,p: 45% 20% 19% 16%\n",
      "[libx264 @ 0x55ef07915a80] Weighted P-Frames: Y:1.8% UV:1.8%\n",
      "[libx264 @ 0x55ef07915a80] ref P L0: 44.9% 14.4% 22.2% 18.2%  0.3%\n",
      "[libx264 @ 0x55ef07915a80] kb/s:8226.04\n",
      "Input #0, mov,mp4,m4a,3gp,3g2,mj2, from 'EXPERIMENT/XXXX1.mp4':\n",
      "  Metadata:\n",
      "    major_brand     : isom\n",
      "    minor_version   : 512\n",
      "    compatible_brands: isomiso2avc1mp41\n",
      "    encoder         : Lavf58.29.100\n",
      "  Duration: 00:00:04.57, start: 0.000000, bitrate: 8229 kb/s\n",
      "    Stream #0:0(und): Video: h264 (High) (avc1 / 0x31637661), yuv420p, 512x768 [SAR 1:1 DAR 2:3], 8227 kb/s, 30 fps, 30 tbr, 15360 tbn, 60 tbc (default)\n",
      "    Metadata:\n",
      "      handler_name    : VideoHandler\n",
      "Stream mapping:\n",
      "  Stream #0:0 -> #0:0 (h264 (native) -> h264 (libx264))\n",
      "Press [q] to stop, [?] for help\n",
      "[libx264 @ 0x55a5204f0b00] using SAR=1/1\n",
      "[libx264 @ 0x55a5204f0b00] using cpu capabilities: MMX2 SSE2Fast LZCNT SSSE3 SSE4.2\n",
      "[libx264 @ 0x55a5204f0b00] profile High, level 3.0\n",
      "[libx264 @ 0x55a5204f0b00] 264 - core 155 r2917 0a84d98 - H.264/MPEG-4 AVC codec - Copyleft 2003-2018 - http://www.videolan.org/x264.html - options: cabac=1 ref=3 deblock=1:0:0 analyse=0x3:0x113 me=hex subme=7 psy=1 psy_rd=1.00:0.00 mixed_ref=1 me_range=16 chroma_me=1 trellis=1 8x8dct=1 cqm=0 deadzone=21,11 fast_pskip=1 chroma_qp_offset=-2 threads=3 lookahead_threads=1 sliced_threads=0 nr=0 decimate=1 interlaced=0 bluray_compat=0 constrained_intra=0 bframes=3 b_pyramid=2 b_adapt=1 b_bias=0 direct=1 weightb=1 open_gop=0 weightp=2 keyint=250 keyint_min=25 scenecut=40 intra_refresh=0 rc_lookahead=40 rc=crf mbtree=1 crf=23.0 qcomp=0.60 qpmin=0 qpmax=69 qpstep=4 ip_ratio=1.40 aq=1:1.00\n",
      "Output #0, mp4, to 'EXPERIMENT/_file_2023-06-05_18-54-53.mp4':\n",
      "  Metadata:\n",
      "    major_brand     : isom\n",
      "    minor_version   : 512\n",
      "    compatible_brands: isomiso2avc1mp41\n",
      "    encoder         : Lavf58.29.100\n",
      "    Stream #0:0(und): Video: h264 (libx264) (avc1 / 0x31637661), yuv420p, 512x768 [SAR 1:1 DAR 2:3], q=-1--1, 25 fps, 12800 tbn, 25 tbc (default)\n",
      "    Metadata:\n",
      "      handler_name    : VideoHandler\n",
      "      encoder         : Lavc58.54.100 libx264\n",
      "    Side data:\n",
      "      cpb: bitrate max/min/avg: 0/0/0 buffer size: 0 vbv_delay: -1\n",
      "frame= 1450 fps=4.4 q=-1.0 Lsize=   23593kB time=00:00:57.88 bitrate=3339.2kbits/s speed=0.174x     \n",
      "video:23575kB audio:0kB subtitle:0kB other streams:0kB global headers:0kB muxing overhead: 0.075175%\n",
      "[libx264 @ 0x55a5204f0b00] frame I:16    Avg QP:24.48  size: 37815\n",
      "[libx264 @ 0x55a5204f0b00] frame P:419   Avg QP:26.52  size: 25930\n",
      "[libx264 @ 0x55a5204f0b00] frame B:1015  Avg QP:27.96  size: 12483\n",
      "[libx264 @ 0x55a5204f0b00] consecutive B-frames:  5.8%  1.5%  3.3% 89.4%\n",
      "[libx264 @ 0x55a5204f0b00] mb I  I16..4:  2.1% 74.8% 23.1%\n",
      "[libx264 @ 0x55a5204f0b00] mb P  I16..4:  2.4% 47.5% 13.5%  P16..4: 14.4%  8.9%  3.3%  0.0%  0.0%    skip: 9.9%\n",
      "[libx264 @ 0x55a5204f0b00] mb B  I16..4:  0.4%  9.4%  2.5%  B16..8: 29.8% 14.8%  4.1%  direct:10.3%  skip:28.7%  L0:37.3% L1:34.0% BI:28.7%\n",
      "[libx264 @ 0x55a5204f0b00] 8x8 transform intra:75.3% inter:71.5%\n",
      "[libx264 @ 0x55a5204f0b00] coded y,uvDC,uvAC intra: 86.5% 89.8% 50.4% inter: 41.6% 48.5% 3.2%\n",
      "[libx264 @ 0x55a5204f0b00] i16 v,h,dc,p: 14%  9%  2% 75%\n",
      "[libx264 @ 0x55a5204f0b00] i8 v,h,dc,ddl,ddr,vr,hd,vl,hu: 15% 12% 11%  9% 11% 11% 10% 11% 10%\n",
      "[libx264 @ 0x55a5204f0b00] i4 v,h,dc,ddl,ddr,vr,hd,vl,hu: 18% 13% 12%  9% 13% 12%  9%  9%  7%\n",
      "[libx264 @ 0x55a5204f0b00] i8c dc,h,v,p: 43% 18% 21% 18%\n",
      "[libx264 @ 0x55a5204f0b00] Weighted P-Frames: Y:23.4% UV:22.9%\n",
      "[libx264 @ 0x55a5204f0b00] ref P L0: 62.1% 23.0% 10.8%  3.3%  0.8%\n",
      "[libx264 @ 0x55a5204f0b00] ref B L0: 94.1%  4.8%  1.2%\n",
      "[libx264 @ 0x55a5204f0b00] ref B L1: 98.5%  1.5%\n",
      "[libx264 @ 0x55a5204f0b00] kb/s:3329.71\n",
      "ffmpeg version 4.2.7-0ubuntu0.1 Copyright (c) 2000-2022 the FFmpeg developers\n",
      "  built with gcc 9 (Ubuntu 9.4.0-1ubuntu1~20.04.1)\n",
      "  configuration: --prefix=/usr --extra-version=0ubuntu0.1 --toolchain=hardened --libdir=/usr/lib/x86_64-linux-gnu --incdir=/usr/include/x86_64-linux-gnu --arch=amd64 --enable-gpl --disable-stripping --enable-avresample --disable-filter=resample --enable-avisynth --enable-gnutls --enable-ladspa --enable-libaom --enable-libass --enable-libbluray --enable-libbs2b --enable-libcaca --enable-libcdio --enable-libcodec2 --enable-libflite --enable-libfontconfig --enable-libfreetype --enable-libfribidi --enable-libgme --enable-libgsm --enable-libjack --enable-libmp3lame --enable-libmysofa --enable-libopenjpeg --enable-libopenmpt --enable-libopus --enable-libpulse --enable-librsvg --enable-librubberband --enable-libshine --enable-libsnappy --enable-libsoxr --enable-libspeex --enable-libssh --enable-libtheora --enable-libtwolame --enable-libvidstab --enable-libvorbis --enable-libvpx --enable-libwavpack --enable-libwebp --enable-libx265 --enable-libxml2 --enable-libxvid --enable-libzmq --enable-libzvbi --enable-lv2 --enable-omx --enable-openal --enable-opencl --enable-opengl --enable-sdl2 --enable-libdc1394 --enable-libdrm --enable-libiec61883 --enable-nvenc --enable-chromaprint --enable-frei0r --enable-libx264 --enable-shared\n",
      "  WARNING: library configuration mismatch\n",
      "  avcodec     configuration: --prefix=/usr --extra-version=0ubuntu0.1 --toolchain=hardened --libdir=/usr/lib/x86_64-linux-gnu --incdir=/usr/include/x86_64-linux-gnu --arch=amd64 --enable-gpl --disable-stripping --enable-avresample --disable-filter=resample --enable-avisynth --enable-gnutls --enable-ladspa --enable-libaom --enable-libass --enable-libbluray --enable-libbs2b --enable-libcaca --enable-libcdio --enable-libcodec2 --enable-libflite --enable-libfontconfig --enable-libfreetype --enable-libfribidi --enable-libgme --enable-libgsm --enable-libjack --enable-libmp3lame --enable-libmysofa --enable-libopenjpeg --enable-libopenmpt --enable-libopus --enable-libpulse --enable-librsvg --enable-librubberband --enable-libshine --enable-libsnappy --enable-libsoxr --enable-libspeex --enable-libssh --enable-libtheora --enable-libtwolame --enable-libvidstab --enable-libvorbis --enable-libvpx --enable-libwavpack --enable-libwebp --enable-libx265 --enable-libxml2 --enable-libxvid --enable-libzmq --enable-libzvbi --enable-lv2 --enable-omx --enable-openal --enable-opencl --enable-opengl --enable-sdl2 --enable-libdc1394 --enable-libdrm --enable-libiec61883 --enable-nvenc --enable-chromaprint --enable-frei0r --enable-libx264 --enable-shared --enable-version3 --disable-doc --disable-programs --enable-libaribb24 --enable-liblensfun --enable-libopencore_amrnb --enable-libopencore_amrwb --enable-libtesseract --enable-libvo_amrwbenc\n",
      "  libavutil      56. 31.100 / 56. 31.100\n",
      "  libavcodec     58. 54.100 / 58. 54.100\n",
      "  libavformat    58. 29.100 / 58. 29.100\n",
      "  libavdevice    58.  8.100 / 58.  8.100\n",
      "  libavfilter     7. 57.100 /  7. 57.100\n",
      "  libavresample   4.  0.  0 /  4.  0.  0\n",
      "  libswscale      5.  5.100 /  5.  5.100\n",
      "  libswresample   3.  5.100 /  3.  5.100\n",
      "  libpostproc    55.  5.100 / 55.  5.100\n",
      "Input #0, mov,mp4,m4a,3gp,3g2,mj2, from 'EXPERIMENT/_file_2023-06-05_18-54-53.mp4':\n",
      "  Metadata:\n",
      "    major_brand     : isom\n",
      "    minor_version   : 512\n",
      "    compatible_brands: isomiso2avc1mp41\n",
      "    encoder         : Lavf58.29.100\n",
      "  Duration: 00:00:58.00, start: 0.000000, bitrate: 3332 kb/s\n",
      "    Stream #0:0(und): Video: h264 (High) (avc1 / 0x31637661), yuv420p, 512x768 [SAR 1:1 DAR 2:3], 3329 kb/s, 25 fps, 25 tbr, 12800 tbn, 50 tbc (default)\n",
      "    Metadata:\n",
      "      handler_name    : VideoHandler\n"
     ]
    },
    {
     "name": "stderr",
     "output_type": "stream",
     "text": [
      "Input #1, mp3, from '/mnt/HDD500/collections/Music/Music-Copyright_Free_Music.mp3':\n",
      "  Metadata:\n",
      "    major_brand     : mp42\n",
      "    minor_version   : 0\n",
      "    compatible_brands: isommp42\n",
      "    encoder         : Lavf58.29.100\n",
      "  Duration: 03:26:08.74, start: 0.025057, bitrate: 128 kb/s\n",
      "    Stream #1:0: Audio: mp3, 44100 Hz, stereo, fltp, 128 kb/s\n",
      "    Metadata:\n",
      "      encoder         : Lavc58.54\n",
      "Stream mapping:\n",
      "  Stream #0:0 -> #0:0 (copy)\n",
      "  Stream #1:0 -> #0:1 (mp3 (mp3float) -> aac (native))\n",
      "Press [q] to stop, [?] for help\n",
      "Output #0, mp4, to 'EXPERIMENT/2023-06-05_18-54-53XX.mp4':\n",
      "  Metadata:\n",
      "    major_brand     : isom\n",
      "    minor_version   : 512\n",
      "    compatible_brands: isomiso2avc1mp41\n",
      "    encoder         : Lavf58.29.100\n",
      "    Stream #0:0(und): Video: h264 (High) (avc1 / 0x31637661), yuv420p, 512x768 [SAR 1:1 DAR 2:3], q=2-31, 3329 kb/s, 25 fps, 25 tbr, 12800 tbn, 12800 tbc (default)\n",
      "    Metadata:\n",
      "      handler_name    : VideoHandler\n",
      "    Stream #0:1: Audio: aac (LC) (mp4a / 0x6134706D), 44100 Hz, stereo, fltp, 128 kb/s\n",
      "    Metadata:\n",
      "      encoder         : Lavc58.54.100 aac\n",
      "frame= 1450 fps=0.0 q=-1.0 Lsize=   24502kB time=00:00:57.91 bitrate=3466.1kbits/s speed=69.6x    \n",
      "video:23575kB audio:878kB subtitle:0kB other streams:0kB global headers:0kB muxing overhead: 0.197903%\n",
      "[aac @ 0x55810de92b40] Qavg: 3367.994\n"
     ]
    },
    {
     "data": {
      "text/plain": [
       "CompletedProcess(args=['ffmpeg', '-ss', '0', '-i', 'EXPERIMENT/_file_2023-06-05_18-54-53.mp4', '-ss', '8144', '-i', '/mnt/HDD500/collections/Music/Music-Copyright_Free_Music.mp3', '-map', '0:v', '-map', '1:a', '-c:v', 'copy', '-c:a', 'aac', '-shortest', '-y', 'EXPERIMENT/2023-06-05_18-54-53XX.mp4'], returncode=0)"
      ]
     },
     "execution_count": 2,
     "metadata": {},
     "output_type": "execute_result"
    }
   ],
   "source": [
    "import subprocess\n",
    "import os\n",
    "from datetime import datetime\n",
    "\n",
    "DIR = \"/home/jack/Desktop/HDD500/MyTube_AI_Flask_App/Project_TheOrigin/RAW_Story_resources/mkvideo/\"\n",
    "VIDEOS = \"EXPERIMENT/XXXX1.mp4\"\n",
    "MUSIC = \"/mnt/HDD500/collections/Music/Music-Copyright_Free_Music.mp3\"\n",
    "directory_name = \"EXPERIMENT/\"\n",
    "\n",
    "# Create a filename with the current date and time\n",
    "current_datetime = datetime.now().strftime(\"%Y-%m-%d_%H-%M-%S\")\n",
    "filename = f\"EXPERIMENT/_file_{current_datetime}.mp4\"\n",
    "final_filename = f\"{directory_name}{current_datetime}XX.mp4\"\n",
    "\n",
    "# Command 1: Convert images to video\n",
    "command1 = [\n",
    "    \"ffmpeg\",\n",
    "    \"-hide_banner\",\n",
    "    \"-i\",\n",
    "    f\"{DIR}%*.jpg\",\n",
    "    \"-vf\",\n",
    "    \"scale=512:768,setsar=1:1\",\n",
    "    \"-c:v\",\n",
    "    \"libx264\",\n",
    "    \"-r\",\n",
    "    \"30\",\n",
    "    \"-pix_fmt\",\n",
    "    \"yuv420p\",\n",
    "    \"-y\",\n",
    "    VIDEOS\n",
    "]\n",
    "\n",
    "# Command 2: Apply video filters and set duration\n",
    "command2 = [\n",
    "    \"ffmpeg\",\n",
    "    \"-hide_banner\",\n",
    "    \"-i\",\n",
    "    VIDEOS,\n",
    "    \"-filter:v\",\n",
    "    \"setpts=15*PTS,minterpolate='fps=25:scd=none:me_mode=bidir:vsbmc=1:search_param=200'\",\n",
    "    \"-t\",\n",
    "    \"58\",\n",
    "    \"-y\",\n",
    "    filename\n",
    "]\n",
    "\n",
    "# Command 3: Add audio to video and finalize\n",
    "random_number = str((int(os.urandom(4).hex(), 16) % 3600) + 7200)\n",
    "command3 = [\n",
    "    \"ffmpeg\",\n",
    "    \"-ss\",\n",
    "    \"0\",\n",
    "    \"-i\",\n",
    "    filename,\n",
    "    \"-ss\",\n",
    "    random_number,\n",
    "    \"-i\",\n",
    "    MUSIC,\n",
    "    \"-map\",\n",
    "    \"0:v\",\n",
    "    \"-map\",\n",
    "    \"1:a\",\n",
    "    \"-c:v\",\n",
    "    \"copy\",\n",
    "    \"-c:a\",\n",
    "    \"aac\",\n",
    "    \"-shortest\",\n",
    "    \"-y\",\n",
    "    final_filename\n",
    "]\n",
    "\n",
    "# Execute commands as subprocesses\n",
    "subprocess.run(command1)\n",
    "subprocess.run(command2)\n",
    "subprocess.run(command3)\n"
   ]
  },
  {
   "cell_type": "code",
   "execution_count": null,
   "id": "ead92ce5",
   "metadata": {},
   "outputs": [],
   "source": [
    "import subprocess\n",
    "import os\n",
    "\n",
    "DIR = \"/home/jack/Desktop/HDD500/MyTube_AI_Flask_App/Project_TheOrigin/RAW_Story_resources/mkvideo/\"\n",
    "\n",
    "# Extract the directory path from DIR\n",
    "output_dir = os.path.dirname(DIR)\n",
    "\n",
    "# Construct the output video file path\n",
    "output_file = os.path.join(output_dir, \"output.mp4\")\n",
    "\n",
    "# Construct the FFmpeg command\n",
    "command = [\n",
    "    \"ffmpeg\",\n",
    "    \"-hide_banner\",\n",
    "    \"-i\",\n",
    "    f\"{DIR}%*.jpg\",\n",
    "    \"-vf\",\n",
    "    \"scale=512:768,setsar=1:1\",\n",
    "    \"-c:v\",\n",
    "    \"libx264\",\n",
    "    \"-r\",\n",
    "    \"30\",\n",
    "    \"-pix_fmt\",\n",
    "    \"yuv420p\",\n",
    "    output_file\n",
    "]\n",
    "\n",
    "# Execute the FFmpeg command\n",
    "subprocess.run(command)\n"
   ]
  },
  {
   "cell_type": "code",
   "execution_count": null,
   "id": "38bd23f6",
   "metadata": {},
   "outputs": [],
   "source": [
    "import subprocess\n",
    "\n",
    "DIR = \"/home/jack/Desktop/HDD500/MyTube_AI_Flask_App/Project_TheOrigin/RAW_Story_resources/mkvideo/\"\n",
    "\n",
    "# Construct the FFmpeg command\n",
    "command = [\n",
    "    \"ffmpeg\",\n",
    "    \"-hide_banner\",\n",
    "    \"-i\",\n",
    "    f\"{DIR}%*.jpg\",\n",
    "    \"-vf\",\n",
    "    \"scale=512:768,setsar=1:1\",\n",
    "    \"-c:v\",\n",
    "    \"libx264\",\n",
    "    \"-r\",\n",
    "    \"30\",\n",
    "    \"-pix_fmt\",\n",
    "    \"yuv420p\",\n",
    "    \"output.mp4\"\n",
    "]\n",
    "\n",
    "# Execute the FFmpeg command\n",
    "subprocess.run(command)\n"
   ]
  },
  {
   "cell_type": "code",
   "execution_count": 38,
   "id": "9ed0d96b",
   "metadata": {},
   "outputs": [
    {
     "name": "stderr",
     "output_type": "stream",
     "text": [
      "[mp3 @ 0x55660f43e600] Estimating duration from bitrate, this may be inaccurate\n",
      "Input #0, mp3, from '/home/jack/Desktop/HDD500/MyTube_AI_Flask_App/sample_data/input_audio.mp3':\n",
      "  Duration: 00:00:16.06, start: 0.000000, bitrate: 32 kb/s\n",
      "    Stream #0:0: Audio: mp3, 24000 Hz, mono, fltp, 32 kb/s\n",
      "Stream mapping:\n",
      "  Stream #0:0 -> #0:0 (mp3 (mp3float) -> pcm_s16le (native))\n",
      "Press [q] to stop, [?] for help\n",
      "Output #0, wav, to '/home/jack/Desktop/HDD500/MyTube_AI_Flask_App/sample_data/input_audio.wav':\n",
      "  Metadata:\n",
      "    ISFT            : Lavf58.29.100\n",
      "    Stream #0:0: Audio: pcm_s16le ([1][0][0][0] / 0x0001), 24000 Hz, mono, s16, 384 kb/s\n",
      "    Metadata:\n",
      "      encoder         : Lavc58.54.100 pcm_s16le\n",
      "size=     753kB time=00:00:16.05 bitrate= 384.0kbits/s speed=1.48e+03x    \n",
      "video:0kB audio:753kB subtitle:0kB other streams:0kB global headers:0kB muxing overhead: 0.010121%\n"
     ]
    }
   ],
   "source": [
    "import pygame.mixer\n",
    "\n",
    "import subprocess\n",
    "text = \"\"\"Maybe A AI is an alien. \n",
    "If I was a super intellegent alien I would enter earth through its technology.\n",
    " The best technology to use is A I. Even the best of the best scientist can't explain exactly how it works.\"\"\"\n",
    "\n",
    "# Generate the audio file using gTTS\n",
    "tts = gTTS(text, lang='en', slow=False)\n",
    "tts.save('/home/jack/Desktop/HDD500/MyTube_AI_Flask_App/sample_data/input_audio.mp3')\n",
    "\n",
    "# Convert the MP3 to WAV using FFmpeg\n",
    "subprocess.run(['ffmpeg','-hide_banner','-i','/home/jack/Desktop/HDD500/MyTube_AI_Flask_App/sample_data/input_audio.mp3','/home/jack/Desktop/HDD500/MyTube_AI_Flask_App/sample_data/input_audio.wav'])\n",
    "\n",
    "# Initialize pygame\n",
    "pygame.mixer.init()\n",
    "pygame.mixer.music.load('/home/jack/Desktop/HDD500/MyTube_AI_Flask_App/sample_data/input_audio.mp3')\n",
    "\n",
    "\n",
    "# Set the volume (optional)\n",
    "pygame.mixer.music.set_volume(1.0)\n",
    "\n",
    "# Play the audio\n",
    "pygame.mixer.music.play()\n",
    "\n",
    "# Wait for the audio to finish playing\n",
    "while pygame.mixer.music.get_busy():\n",
    "    pygame.time.Clock().tick(10)\n",
    "\n",
    "# Quit pygame\n",
    "pygame.mixer.quit()\n"
   ]
  },
  {
   "cell_type": "code",
   "execution_count": null,
   "id": "d2f647ae",
   "metadata": {},
   "outputs": [],
   "source": []
  },
  {
   "cell_type": "code",
   "execution_count": 52,
   "id": "1127d520",
   "metadata": {},
   "outputs": [
    {
     "name": "stderr",
     "output_type": "stream",
     "text": [
      "/home/jack/Desktop/HDD500/MyTube_AI_Flask_App/static/Storie/9.mp3: No such file or directory\n"
     ]
    },
    {
     "ename": "OSError",
     "evalue": "MoviePy error: the file /home/jack/Desktop/HDD500/MyTube_AI_Flask_App/static/Storie/input_audio_9.wav could not be found!\nPlease check that you entered the correct path.",
     "output_type": "error",
     "traceback": [
      "\u001b[0;31m---------------------------------------------------------------------------\u001b[0m",
      "\u001b[0;31mOSError\u001b[0m                                   Traceback (most recent call last)",
      "Cell \u001b[0;32mIn[52], line 12\u001b[0m\n\u001b[1;32m     10\u001b[0m audio_path \u001b[38;5;241m=\u001b[39m \u001b[38;5;124m'\u001b[39m\u001b[38;5;124m/home/jack/Desktop/HDD500/MyTube_AI_Flask_App/static/Storie/input_audio_9.wav\u001b[39m\u001b[38;5;124m'\u001b[39m\n\u001b[1;32m     11\u001b[0m image_np \u001b[38;5;241m=\u001b[39m np\u001b[38;5;241m.\u001b[39marray(image_)  \u001b[38;5;66;03m# Convert Image to NumPy array\u001b[39;00m\n\u001b[0;32m---> 12\u001b[0m image \u001b[38;5;241m=\u001b[39m VideoClip(\u001b[38;5;28;01mlambda\u001b[39;00m t: image_np, duration\u001b[38;5;241m=\u001b[39m\u001b[43mAudioFileClip\u001b[49m\u001b[43m(\u001b[49m\u001b[43maudio_path\u001b[49m\u001b[43m)\u001b[49m\u001b[38;5;241m.\u001b[39mduration)\n\u001b[1;32m     13\u001b[0m audio \u001b[38;5;241m=\u001b[39m AudioFileClip(audio_path)\n\u001b[1;32m     15\u001b[0m output_file \u001b[38;5;241m=\u001b[39m \u001b[38;5;124m'\u001b[39m\u001b[38;5;124m/home/jack/Desktop/HDD500/MyTube_AI_Flask_App/static/Storie/input_video_9.mp4\u001b[39m\u001b[38;5;124m'\u001b[39m\n",
      "File \u001b[0;32m~/miniconda3/envs/cloned_base/lib/python3.9/site-packages/moviepy/audio/io/AudioFileClip.py:70\u001b[0m, in \u001b[0;36mAudioFileClip.__init__\u001b[0;34m(self, filename, buffersize, nbytes, fps)\u001b[0m\n\u001b[1;32m     67\u001b[0m AudioClip\u001b[38;5;241m.\u001b[39m\u001b[38;5;21m__init__\u001b[39m(\u001b[38;5;28mself\u001b[39m)\n\u001b[1;32m     69\u001b[0m \u001b[38;5;28mself\u001b[39m\u001b[38;5;241m.\u001b[39mfilename \u001b[38;5;241m=\u001b[39m filename\n\u001b[0;32m---> 70\u001b[0m \u001b[38;5;28mself\u001b[39m\u001b[38;5;241m.\u001b[39mreader \u001b[38;5;241m=\u001b[39m \u001b[43mFFMPEG_AudioReader\u001b[49m\u001b[43m(\u001b[49m\u001b[43mfilename\u001b[49m\u001b[43m,\u001b[49m\u001b[43m \u001b[49m\u001b[43mfps\u001b[49m\u001b[38;5;241;43m=\u001b[39;49m\u001b[43mfps\u001b[49m\u001b[43m,\u001b[49m\u001b[43m \u001b[49m\u001b[43mnbytes\u001b[49m\u001b[38;5;241;43m=\u001b[39;49m\u001b[43mnbytes\u001b[49m\u001b[43m,\u001b[49m\n\u001b[1;32m     71\u001b[0m \u001b[43m                                 \u001b[49m\u001b[43mbuffersize\u001b[49m\u001b[38;5;241;43m=\u001b[39;49m\u001b[43mbuffersize\u001b[49m\u001b[43m)\u001b[49m\n\u001b[1;32m     72\u001b[0m \u001b[38;5;28mself\u001b[39m\u001b[38;5;241m.\u001b[39mfps \u001b[38;5;241m=\u001b[39m fps\n\u001b[1;32m     73\u001b[0m \u001b[38;5;28mself\u001b[39m\u001b[38;5;241m.\u001b[39mduration \u001b[38;5;241m=\u001b[39m \u001b[38;5;28mself\u001b[39m\u001b[38;5;241m.\u001b[39mreader\u001b[38;5;241m.\u001b[39mduration\n",
      "File \u001b[0;32m~/miniconda3/envs/cloned_base/lib/python3.9/site-packages/moviepy/audio/io/readers.py:51\u001b[0m, in \u001b[0;36mFFMPEG_AudioReader.__init__\u001b[0;34m(self, filename, buffersize, print_infos, fps, nbytes, nchannels)\u001b[0m\n\u001b[1;32m     49\u001b[0m \u001b[38;5;28mself\u001b[39m\u001b[38;5;241m.\u001b[39macodec \u001b[38;5;241m=\u001b[39m \u001b[38;5;124m'\u001b[39m\u001b[38;5;124mpcm_s\u001b[39m\u001b[38;5;132;01m%d\u001b[39;00m\u001b[38;5;124mle\u001b[39m\u001b[38;5;124m'\u001b[39m\u001b[38;5;241m%\u001b[39m(\u001b[38;5;241m8\u001b[39m\u001b[38;5;241m*\u001b[39mnbytes)\n\u001b[1;32m     50\u001b[0m \u001b[38;5;28mself\u001b[39m\u001b[38;5;241m.\u001b[39mnchannels \u001b[38;5;241m=\u001b[39m nchannels\n\u001b[0;32m---> 51\u001b[0m infos \u001b[38;5;241m=\u001b[39m \u001b[43mffmpeg_parse_infos\u001b[49m\u001b[43m(\u001b[49m\u001b[43mfilename\u001b[49m\u001b[43m)\u001b[49m\n\u001b[1;32m     52\u001b[0m \u001b[38;5;28mself\u001b[39m\u001b[38;5;241m.\u001b[39mduration \u001b[38;5;241m=\u001b[39m infos[\u001b[38;5;124m'\u001b[39m\u001b[38;5;124mduration\u001b[39m\u001b[38;5;124m'\u001b[39m]\n\u001b[1;32m     53\u001b[0m \u001b[38;5;28;01mif\u001b[39;00m \u001b[38;5;124m'\u001b[39m\u001b[38;5;124mvideo_duration\u001b[39m\u001b[38;5;124m'\u001b[39m \u001b[38;5;129;01min\u001b[39;00m infos:\n",
      "File \u001b[0;32m~/miniconda3/envs/cloned_base/lib/python3.9/site-packages/moviepy/video/io/ffmpeg_reader.py:270\u001b[0m, in \u001b[0;36mffmpeg_parse_infos\u001b[0;34m(filename, print_infos, check_duration, fps_source)\u001b[0m\n\u001b[1;32m    268\u001b[0m lines \u001b[38;5;241m=\u001b[39m infos\u001b[38;5;241m.\u001b[39msplitlines()\n\u001b[1;32m    269\u001b[0m \u001b[38;5;28;01mif\u001b[39;00m \u001b[38;5;124m\"\u001b[39m\u001b[38;5;124mNo such file or directory\u001b[39m\u001b[38;5;124m\"\u001b[39m \u001b[38;5;129;01min\u001b[39;00m lines[\u001b[38;5;241m-\u001b[39m\u001b[38;5;241m1\u001b[39m]:\n\u001b[0;32m--> 270\u001b[0m     \u001b[38;5;28;01mraise\u001b[39;00m \u001b[38;5;167;01mIOError\u001b[39;00m((\u001b[38;5;124m\"\u001b[39m\u001b[38;5;124mMoviePy error: the file \u001b[39m\u001b[38;5;132;01m%s\u001b[39;00m\u001b[38;5;124m could not be found!\u001b[39m\u001b[38;5;130;01m\\n\u001b[39;00m\u001b[38;5;124m\"\u001b[39m\n\u001b[1;32m    271\u001b[0m                   \u001b[38;5;124m\"\u001b[39m\u001b[38;5;124mPlease check that you entered the correct \u001b[39m\u001b[38;5;124m\"\u001b[39m\n\u001b[1;32m    272\u001b[0m                   \u001b[38;5;124m\"\u001b[39m\u001b[38;5;124mpath.\u001b[39m\u001b[38;5;124m\"\u001b[39m)\u001b[38;5;241m%\u001b[39mfilename)\n\u001b[1;32m    274\u001b[0m result \u001b[38;5;241m=\u001b[39m \u001b[38;5;28mdict\u001b[39m()\n\u001b[1;32m    277\u001b[0m \u001b[38;5;66;03m# get duration (in seconds)\u001b[39;00m\n",
      "\u001b[0;31mOSError\u001b[0m: MoviePy error: the file /home/jack/Desktop/HDD500/MyTube_AI_Flask_App/static/Storie/input_audio_9.wav could not be found!\nPlease check that you entered the correct path."
     ]
    }
   ],
   "source": [
    "from moviepy.editor import VideoClip\n",
    "from moviepy.audio.io.AudioFileClip import AudioFileClip\n",
    "from PIL import Image\n",
    "import numpy as np\n",
    "import subprocess\n",
    "# Convert the MP3 to WAV using FFmpeg\n",
    "subprocess.run(['ffmpeg','-hide_banner','-i','/home/jack/Desktop/HDD500/MyTube_AI_Flask_App/static/Storie/9.mp3','/home/jack/Desktop/HDD500/MyTube_AI_Flask_App/static/Storie/input_audio_9.wav'])\n",
    "image_path = '/home/jack/Desktop/HDD500/MyTube_AI_Flask_App/static/Storie/9.jpg'\n",
    "image_=Image.open(image_path)\n",
    "audio_path = '/home/jack/Desktop/HDD500/MyTube_AI_Flask_App/static/Storie/input_audio_9.wav'\n",
    "image_np = np.array(image_)  # Convert Image to NumPy array\n",
    "image = VideoClip(lambda t: image_np, duration=AudioFileClip(audio_path).duration)\n",
    "audio = AudioFileClip(audio_path)\n",
    "\n",
    "output_file = '/home/jack/Desktop/HDD500/MyTube_AI_Flask_App/static/Storie/input_video_9.mp4'\n",
    "video = image.set_audio(audio)\n",
    "\n",
    "video.write_videofile(output_file, codec='libx264', audio_codec='aac',fps=24)\n"
   ]
  },
  {
   "cell_type": "code",
   "execution_count": null,
   "id": "9365cae8",
   "metadata": {},
   "outputs": [],
   "source": []
  },
  {
   "cell_type": "code",
   "execution_count": 34,
   "id": "523454e3",
   "metadata": {},
   "outputs": [],
   "source": [
    "from gtts import gTTS\n",
    "import pygame\n",
    "\n",
    "# Initialize the pygame mixer\n",
    "pygame.mixer.init()\n",
    "\n",
    "# Load the audio file\n",
    "pygame.mixer.music.load('output.wav')\n",
    "\n",
    "# Play the audio file\n",
    "pygame.mixer.music.play()\n",
    "\n",
    "# Wait for the audio to finish playing\n",
    "while pygame.mixer.music.get_busy():\n",
    "    pygame.time.Clock().tick(10)\n",
    "\n",
    "# Quit pygame\n",
    "pygame.mixer.quit()\n"
   ]
  },
  {
   "cell_type": "code",
   "execution_count": 13,
   "id": "726aaeb9",
   "metadata": {},
   "outputs": [
    {
     "ename": "TypeError",
     "evalue": "'module' object is not callable",
     "output_type": "error",
     "traceback": [
      "\u001b[0;31m---------------------------------------------------------------------------\u001b[0m",
      "\u001b[0;31mTypeError\u001b[0m                                 Traceback (most recent call last)",
      "Cell \u001b[0;32mIn[13], line 2\u001b[0m\n\u001b[1;32m      1\u001b[0m \u001b[38;5;28;01mimport\u001b[39;00m \u001b[38;5;21;01minspect\u001b[39;00m\n\u001b[0;32m----> 2\u001b[0m \u001b[43minspect\u001b[49m\u001b[43m(\u001b[49m\u001b[43mgTTS\u001b[49m\u001b[43m)\u001b[49m\n",
      "\u001b[0;31mTypeError\u001b[0m: 'module' object is not callable"
     ]
    }
   ],
   "source": [
    "can gTTS use a male voice ?"
   ]
  },
  {
   "cell_type": "code",
   "execution_count": 14,
   "id": "c30a456d",
   "metadata": {},
   "outputs": [
    {
     "name": "stdout",
     "output_type": "stream",
     "text": [
      "accents.py  __init__.py  langs.py     tests\t tts.py    version.py\r\n",
      "cli.py\t    lang.py\t __pycache__  tokenizer  utils.py\r\n"
     ]
    }
   ],
   "source": [
    "!ls /home/jack/miniconda3/envs/cloned_base/lib/python3.9/site-packages/gtts\n"
   ]
  },
  {
   "cell_type": "code",
   "execution_count": 15,
   "id": "4da5974c",
   "metadata": {},
   "outputs": [],
   "source": [
    "!locate gtts_token.py"
   ]
  },
  {
   "cell_type": "code",
   "execution_count": 20,
   "id": "0459394b",
   "metadata": {},
   "outputs": [],
   "source": [
    "import pyttsx3\n",
    "\n",
    "engine = pyttsx3.init()\n",
    "engine.setProperty('rate', 150)  # Adjust speech rate (optional)\n",
    "engine.setProperty('voice', 'en-us')  # Set the male voice (adjust for your desired language)\n",
    "\n",
    "text = \"Hello, how are you?\"\n",
    "engine.say(text)\n",
    "engine.save_to_file(text, 'output.mp3')\n",
    "engine.runAndWait()\n"
   ]
  },
  {
   "cell_type": "code",
   "execution_count": 17,
   "id": "a3f1369b",
   "metadata": {},
   "outputs": [
    {
     "name": "stdout",
     "output_type": "stream",
     "text": [
      "Collecting pyttsx3\n",
      "  Downloading pyttsx3-2.90-py3-none-any.whl (39 kB)\n",
      "Installing collected packages: pyttsx3\n",
      "Successfully installed pyttsx3-2.90\n"
     ]
    }
   ],
   "source": [
    "!pip install pyttsx3"
   ]
  },
  {
   "cell_type": "code",
   "execution_count": null,
   "id": "a7cb1aab",
   "metadata": {},
   "outputs": [],
   "source": []
  }
 ],
 "metadata": {
  "kernelspec": {
   "display_name": "cloned-base",
   "language": "python",
   "name": "cloned-base"
  },
  "language_info": {
   "codemirror_mode": {
    "name": "ipython",
    "version": 3
   },
   "file_extension": ".py",
   "mimetype": "text/x-python",
   "name": "python",
   "nbconvert_exporter": "python",
   "pygments_lexer": "ipython3",
   "version": "3.9.12"
  }
 },
 "nbformat": 4,
 "nbformat_minor": 5
}
